# xmcd
#
# Track frame offsets:
#   150
#   18061
#   38395
#   54784
#   69278
#   85505
#   100704
#   121668
#   140682
#   155556
#   171390
#   185046
#   199818
#   218059
#
# Disc length: 3122 seconds
#
# Revision: 0
# Processed by: cddbd v1.4PL0 Copyright (c) Steve Scherf et al.
# Submitted via: uFREEDB ActiveX Control 1.5
#
DISCID=ac0c300e
DTITLE=Sandy and Júnior - As 4 Estações
DYEAR=1998
DGENRE=Country
TTITLE0=Imortal
TTITLE1=A Arte Do Coração
TTITLE2=Aprender A Amar
TTITLE3=Bye,Bye
TTITLE4=Eu Quero Mais
TTITLE5=Olha O Que O Amor Me Faz
TTITLE6=Sua Estrela Sou Eu
TTITLE7=Príncipe Dos Mares
TTITLE8=Vamo Pulá
TTITLE9=Baby, Eu Já Sabia
TTITLE10=Outdor
TTITLE11=Eu Posso Quase Tudo
TTITLE12=As Quatro Estações
TTITLE13=Malia
EXTD=
EXTT0=
EXTT1=
EXTT2=
EXTT3=
EXTT4=
EXTT5=
EXTT6=
EXTT7=
EXTT8=
EXTT9=
EXTT10=
EXTT11=
EXTT12=
EXTT13=
PLAYORDER=
